ISO-10303-21;
HEADER;
FILE_DESCRIPTION(('FreeCAD Model'),'2;1');
FILE_NAME('Open CASCADE Shape Model','2026-02-17T15:03:57',('Author'),(
    ''),'Open CASCADE STEP processor 7.8','FreeCAD','Unknown');
FILE_SCHEMA(('AUTOMOTIVE_DESIGN { 1 0 10303 214 1 1 1 1 }'));
ENDSEC;
DATA;
#1 = APPLICATION_PROTOCOL_DEFINITION('international standard',
  'automotive_design',2000,#2);
#2 = APPLICATION_CONTEXT(
  'core data for automotive mechanical design processes');
#3 = SHAPE_DEFINITION_REPRESENTATION(#4,#10);
#4 = PRODUCT_DEFINITION_SHAPE('','',#5);
#5 = PRODUCT_DEFINITION('design','',#6,#9);
#6 = PRODUCT_DEFINITION_FORMATION('','',#7);
#7 = PRODUCT('Part','Part','',(#8));
#8 = PRODUCT_CONTEXT('',#2,'mechanical');
#9 = PRODUCT_DEFINITION_CONTEXT('part definition',#2,'design');
#10 = SHAPE_REPRESENTATION('',(#11,#15,#19),#23);
#11 = AXIS2_PLACEMENT_3D('',#12,#13,#14);
#12 = CARTESIAN_POINT('',(0.,0.,0.));
#13 = DIRECTION('',(0.,0.,1.));
#14 = DIRECTION('',(1.,0.,-0.));
#15 = AXIS2_PLACEMENT_3D('',#16,#17,#18);
#16 = CARTESIAN_POINT('',(0.,0.,0.));
#17 = DIRECTION('',(0.,0.,1.));
#18 = DIRECTION('',(1.,0.,0.));
#19 = AXIS2_PLACEMENT_3D('',#20,#21,#22);
#20 = CARTESIAN_POINT('',(0.,0.,0.));
#21 = DIRECTION('',(0.,0.,1.));
#22 = DIRECTION('',(1.,0.,0.));
#23 = ( GEOMETRIC_REPRESENTATION_CONTEXT(3) 
GLOBAL_UNCERTAINTY_ASSIGNED_CONTEXT((#27)) GLOBAL_UNIT_ASSIGNED_CONTEXT(
(#24,#25,#26)) REPRESENTATION_CONTEXT('Context #1',
  '3D Context with UNIT and UNCERTAINTY') );
#24 = ( LENGTH_UNIT() NAMED_UNIT(*) SI_UNIT(.MILLI.,.METRE.) );
#25 = ( NAMED_UNIT(*) PLANE_ANGLE_UNIT() SI_UNIT($,.RADIAN.) );
#26 = ( NAMED_UNIT(*) SI_UNIT($,.STERADIAN.) SOLID_ANGLE_UNIT() );
#27 = UNCERTAINTY_MEASURE_WITH_UNIT(LENGTH_MEASURE(2.E-07),#24,
  'distance_accuracy_value','confusion accuracy');
#28 = PRODUCT_RELATED_PRODUCT_CATEGORY('part',$,(#7));
#29 = SHAPE_DEFINITION_REPRESENTATION(#30,#36);
#30 = PRODUCT_DEFINITION_SHAPE('','',#31);
#31 = PRODUCT_DEFINITION('design','',#32,#35);
#32 = PRODUCT_DEFINITION_FORMATION('','',#33);
#33 = PRODUCT('Array001','Array001','',(#34));
#34 = PRODUCT_CONTEXT('',#2,'mechanical');
#35 = PRODUCT_DEFINITION_CONTEXT('part definition',#2,'design');
#36 = SHAPE_REPRESENTATION('',(#11,#37,#41,#45,#49),#53);
#37 = AXIS2_PLACEMENT_3D('',#38,#39,#40);
#38 = CARTESIAN_POINT('',(0.,0.,0.));
#39 = DIRECTION('',(0.,0.,1.));
#40 = DIRECTION('',(1.,0.,0.));
#41 = AXIS2_PLACEMENT_3D('',#42,#43,#44);
#42 = CARTESIAN_POINT('',(2.54,0.,0.));
#43 = DIRECTION('',(0.,0.,1.));
#44 = DIRECTION('',(1.,0.,0.));
#45 = AXIS2_PLACEMENT_3D('',#46,#47,#48);
#46 = CARTESIAN_POINT('',(5.08,0.,0.));
#47 = DIRECTION('',(0.,0.,1.));
#48 = DIRECTION('',(1.,0.,0.));
#49 = AXIS2_PLACEMENT_3D('',#50,#51,#52);
#50 = CARTESIAN_POINT('',(7.62,0.,0.));
#51 = DIRECTION('',(0.,0.,1.));
#52 = DIRECTION('',(1.,0.,0.));
#53 = ( GEOMETRIC_REPRESENTATION_CONTEXT(3) 
GLOBAL_UNCERTAINTY_ASSIGNED_CONTEXT((#57)) GLOBAL_UNIT_ASSIGNED_CONTEXT(
(#54,#55,#56)) REPRESENTATION_CONTEXT('Context #1',
  '3D Context with UNIT and UNCERTAINTY') );
#54 = ( LENGTH_UNIT() NAMED_UNIT(*) SI_UNIT(.MILLI.,.METRE.) );
#55 = ( NAMED_UNIT(*) PLANE_ANGLE_UNIT() SI_UNIT($,.RADIAN.) );
#56 = ( NAMED_UNIT(*) SI_UNIT($,.STERADIAN.) SOLID_ANGLE_UNIT() );
#57 = UNCERTAINTY_MEASURE_WITH_UNIT(LENGTH_MEASURE(1.E-07),#54,
  'distance_accuracy_value','confusion accuracy');
#58 = CONTEXT_DEPENDENT_SHAPE_REPRESENTATION(#59,#61);
#59 = ( REPRESENTATION_RELATIONSHIP('','',#36,#10) 
REPRESENTATION_RELATIONSHIP_WITH_TRANSFORMATION(#60) 
SHAPE_REPRESENTATION_RELATIONSHIP() );
#60 = ITEM_DEFINED_TRANSFORMATION('','',#11,#15);
#61 = PRODUCT_DEFINITION_SHAPE('Placement','Placement of an item',#62);
#62 = NEXT_ASSEMBLY_USAGE_OCCURRENCE('5','Array001','',#5,#31,$);
#63 = PRODUCT_RELATED_PRODUCT_CATEGORY('part',$,(#33));
#64 = SHAPE_DEFINITION_REPRESENTATION(#65,#71);
#65 = PRODUCT_DEFINITION_SHAPE('','',#66);
#66 = PRODUCT_DEFINITION('design','',#67,#70);
#67 = PRODUCT_DEFINITION_FORMATION('','',#68);
#68 = PRODUCT('Pin','Pin','',(#69));
#69 = PRODUCT_CONTEXT('',#2,'mechanical');
#70 = PRODUCT_DEFINITION_CONTEXT('part definition',#2,'design');
#71 = ADVANCED_BREP_SHAPE_REPRESENTATION('',(#11,#72),#414);
#72 = MANIFOLD_SOLID_BREP('',#73);
#73 = CLOSED_SHELL('',(#74,#114,#145,#176,#207,#238,#262,#286,#303,#325,
    #349,#373,#390,#402));
#74 = ADVANCED_FACE('',(#75),#109,.T.);
#75 = FACE_BOUND('',#76,.T.);
#76 = EDGE_LOOP('',(#77,#87,#95,#103));
#77 = ORIENTED_EDGE('',*,*,#78,.F.);
#78 = EDGE_CURVE('',#79,#81,#83,.T.);
#79 = VERTEX_POINT('',#80);
#80 = CARTESIAN_POINT('',(-0.32,-0.32,5.04));
#81 = VERTEX_POINT('',#82);
#82 = CARTESIAN_POINT('',(0.32,-0.32,5.04));
#83 = LINE('',#84,#85);
#84 = CARTESIAN_POINT('',(-0.12,-0.32,5.04));
#85 = VECTOR('',#86,1.);
#86 = DIRECTION('',(1.,0.,0.));
#87 = ORIENTED_EDGE('',*,*,#88,.F.);
#88 = EDGE_CURVE('',#89,#79,#91,.T.);
#89 = VERTEX_POINT('',#90);
#90 = CARTESIAN_POINT('',(-0.32,-0.32,-2.5));
#91 = LINE('',#92,#93);
#92 = CARTESIAN_POINT('',(-0.32,-0.32,0.));
#93 = VECTOR('',#94,1.);
#94 = DIRECTION('',(0.,0.,1.));
#95 = ORIENTED_EDGE('',*,*,#96,.F.);
#96 = EDGE_CURVE('',#97,#89,#99,.T.);
#97 = VERTEX_POINT('',#98);
#98 = CARTESIAN_POINT('',(0.32,-0.32,-2.5));
#99 = LINE('',#100,#101);
#100 = CARTESIAN_POINT('',(0.32,-0.32,-2.5));
#101 = VECTOR('',#102,1.);
#102 = DIRECTION('',(-1.,0.,0.));
#103 = ORIENTED_EDGE('',*,*,#104,.F.);
#104 = EDGE_CURVE('',#81,#97,#105,.T.);
#105 = LINE('',#106,#107);
#106 = CARTESIAN_POINT('',(0.32,-0.32,0.));
#107 = VECTOR('',#108,1.);
#108 = DIRECTION('',(0.,0.,-1.));
#109 = PLANE('',#110);
#110 = AXIS2_PLACEMENT_3D('',#111,#112,#113);
#111 = CARTESIAN_POINT('',(0.,-0.32,1.27));
#112 = DIRECTION('',(-0.,-1.,-0.));
#113 = DIRECTION('',(0.,0.,-1.));
#114 = ADVANCED_FACE('',(#115),#140,.T.);
#115 = FACE_BOUND('',#116,.T.);
#116 = EDGE_LOOP('',(#117,#125,#126,#134));
#117 = ORIENTED_EDGE('',*,*,#118,.F.);
#118 = EDGE_CURVE('',#79,#119,#121,.T.);
#119 = VERTEX_POINT('',#120);
#120 = CARTESIAN_POINT('',(-0.12,-0.12,5.54));
#121 = LINE('',#122,#123);
#122 = CARTESIAN_POINT('',(-0.181212121212,-0.181212121212,5.38696969697
    ));
#123 = VECTOR('',#124,1.);
#124 = DIRECTION('',(0.348155311911,0.348155311911,0.870388279778));
#125 = ORIENTED_EDGE('',*,*,#78,.T.);
#126 = ORIENTED_EDGE('',*,*,#127,.T.);
#127 = EDGE_CURVE('',#81,#128,#130,.T.);
#128 = VERTEX_POINT('',#129);
#129 = CARTESIAN_POINT('',(0.12,-0.12,5.54));
#130 = LINE('',#131,#132);
#131 = CARTESIAN_POINT('',(0.205454545455,-0.205454545455,5.326363636364
    ));
#132 = VECTOR('',#133,1.);
#133 = DIRECTION('',(-0.348155311911,0.348155311911,0.870388279778));
#134 = ORIENTED_EDGE('',*,*,#135,.F.);
#135 = EDGE_CURVE('',#119,#128,#136,.T.);
#136 = LINE('',#137,#138);
#137 = CARTESIAN_POINT('',(-0.12,-0.12,5.54));
#138 = VECTOR('',#139,1.);
#139 = DIRECTION('',(1.,0.,0.));
#140 = PLANE('',#141);
#141 = AXIS2_PLACEMENT_3D('',#142,#143,#144);
#142 = CARTESIAN_POINT('',(-0.12,-0.22,5.29));
#143 = DIRECTION('',(-3.474474008057E-18,-0.928476690885,0.371390676354)
  );
#144 = DIRECTION('',(1.,-3.225968129567E-18,1.290387251827E-18));
#145 = ADVANCED_FACE('',(#146),#171,.T.);
#146 = FACE_BOUND('',#147,.T.);
#147 = EDGE_LOOP('',(#148,#158,#164,#165));
#148 = ORIENTED_EDGE('',*,*,#149,.F.);
#149 = EDGE_CURVE('',#150,#152,#154,.T.);
#150 = VERTEX_POINT('',#151);
#151 = CARTESIAN_POINT('',(-0.32,0.32,-2.5));
#152 = VERTEX_POINT('',#153);
#153 = CARTESIAN_POINT('',(-0.32,0.32,5.04));
#154 = LINE('',#155,#156);
#155 = CARTESIAN_POINT('',(-0.32,0.32,0.));
#156 = VECTOR('',#157,1.);
#157 = DIRECTION('',(0.,0.,1.));
#158 = ORIENTED_EDGE('',*,*,#159,.F.);
#159 = EDGE_CURVE('',#89,#150,#160,.T.);
#160 = LINE('',#161,#162);
#161 = CARTESIAN_POINT('',(-0.32,-0.32,-2.5));
#162 = VECTOR('',#163,1.);
#163 = DIRECTION('',(0.,1.,0.));
#164 = ORIENTED_EDGE('',*,*,#88,.T.);
#165 = ORIENTED_EDGE('',*,*,#166,.F.);
#166 = EDGE_CURVE('',#152,#79,#167,.T.);
#167 = LINE('',#168,#169);
#168 = CARTESIAN_POINT('',(-0.32,0.32,5.04));
#169 = VECTOR('',#170,1.);
#170 = DIRECTION('',(0.,-1.,0.));
#171 = PLANE('',#172);
#172 = AXIS2_PLACEMENT_3D('',#173,#174,#175);
#173 = CARTESIAN_POINT('',(-0.32,0.,1.27));
#174 = DIRECTION('',(-1.,-0.,-0.));
#175 = DIRECTION('',(0.,0.,-1.));
#176 = ADVANCED_FACE('',(#177),#202,.T.);
#177 = FACE_BOUND('',#178,.T.);
#178 = EDGE_LOOP('',(#179,#180,#188,#196));
#179 = ORIENTED_EDGE('',*,*,#104,.T.);
#180 = ORIENTED_EDGE('',*,*,#181,.F.);
#181 = EDGE_CURVE('',#182,#97,#184,.T.);
#182 = VERTEX_POINT('',#183);
#183 = CARTESIAN_POINT('',(0.32,0.32,-2.5));
#184 = LINE('',#185,#186);
#185 = CARTESIAN_POINT('',(0.32,0.32,-2.5));
#186 = VECTOR('',#187,1.);
#187 = DIRECTION('',(0.,-1.,0.));
#188 = ORIENTED_EDGE('',*,*,#189,.F.);
#189 = EDGE_CURVE('',#190,#182,#192,.T.);
#190 = VERTEX_POINT('',#191);
#191 = CARTESIAN_POINT('',(0.32,0.32,5.04));
#192 = LINE('',#193,#194);
#193 = CARTESIAN_POINT('',(0.32,0.32,0.));
#194 = VECTOR('',#195,1.);
#195 = DIRECTION('',(0.,0.,-1.));
#196 = ORIENTED_EDGE('',*,*,#197,.F.);
#197 = EDGE_CURVE('',#81,#190,#198,.T.);
#198 = LINE('',#199,#200);
#199 = CARTESIAN_POINT('',(0.32,-0.32,5.04));
#200 = VECTOR('',#201,1.);
#201 = DIRECTION('',(0.,1.,0.));
#202 = PLANE('',#203);
#203 = AXIS2_PLACEMENT_3D('',#204,#205,#206);
#204 = CARTESIAN_POINT('',(0.32,0.,1.27));
#205 = DIRECTION('',(1.,0.,0.));
#206 = DIRECTION('',(0.,0.,1.));
#207 = ADVANCED_FACE('',(#208),#233,.F.);
#208 = FACE_BOUND('',#209,.F.);
#209 = EDGE_LOOP('',(#210,#218,#226,#232));
#210 = ORIENTED_EDGE('',*,*,#211,.F.);
#211 = EDGE_CURVE('',#212,#97,#214,.T.);
#212 = VERTEX_POINT('',#213);
#213 = CARTESIAN_POINT('',(0.12,-0.12,-3.));
#214 = LINE('',#215,#216);
#215 = CARTESIAN_POINT('',(0.193333333333,-0.193333333333,
    -2.816666666667));
#216 = VECTOR('',#217,1.);
#217 = DIRECTION('',(0.348155311911,-0.348155311911,0.870388279778));
#218 = ORIENTED_EDGE('',*,*,#219,.T.);
#219 = EDGE_CURVE('',#212,#220,#222,.T.);
#220 = VERTEX_POINT('',#221);
#221 = CARTESIAN_POINT('',(-0.12,-0.12,-3.));
#222 = LINE('',#223,#224);
#223 = CARTESIAN_POINT('',(0.32,-0.12,-3.));
#224 = VECTOR('',#225,1.);
#225 = DIRECTION('',(-1.,0.,0.));
#226 = ORIENTED_EDGE('',*,*,#227,.T.);
#227 = EDGE_CURVE('',#220,#89,#228,.T.);
#228 = LINE('',#229,#230);
#229 = CARTESIAN_POINT('',(-0.193333333333,-0.193333333333,
    -2.816666666667));
#230 = VECTOR('',#231,1.);
#231 = DIRECTION('',(-0.348155311911,-0.348155311911,0.870388279778));
#232 = ORIENTED_EDGE('',*,*,#96,.F.);
#233 = PLANE('',#234);
#234 = AXIS2_PLACEMENT_3D('',#235,#236,#237);
#235 = CARTESIAN_POINT('',(0.32,-0.22,-2.75));
#236 = DIRECTION('',(3.474474008057E-18,0.928476690885,0.371390676354));
#237 = DIRECTION('',(-1.,3.225968129567E-18,1.290387251827E-18));
#238 = ADVANCED_FACE('',(#239),#257,.T.);
#239 = FACE_BOUND('',#240,.F.);
#240 = EDGE_LOOP('',(#241,#249,#250,#251));
#241 = ORIENTED_EDGE('',*,*,#242,.T.);
#242 = EDGE_CURVE('',#243,#119,#245,.T.);
#243 = VERTEX_POINT('',#244);
#244 = CARTESIAN_POINT('',(-0.12,0.12,5.54));
#245 = LINE('',#246,#247);
#246 = CARTESIAN_POINT('',(-0.12,0.32,5.54));
#247 = VECTOR('',#248,1.);
#248 = DIRECTION('',(0.,-1.,0.));
#249 = ORIENTED_EDGE('',*,*,#118,.F.);
#250 = ORIENTED_EDGE('',*,*,#166,.F.);
#251 = ORIENTED_EDGE('',*,*,#252,.F.);
#252 = EDGE_CURVE('',#243,#152,#253,.T.);
#253 = LINE('',#254,#255);
#254 = CARTESIAN_POINT('',(-0.193333333333,0.193333333333,5.356666666667
    ));
#255 = VECTOR('',#256,1.);
#256 = DIRECTION('',(-0.348155311911,0.348155311911,-0.870388279778));
#257 = PLANE('',#258);
#258 = AXIS2_PLACEMENT_3D('',#259,#260,#261);
#259 = CARTESIAN_POINT('',(-0.22,0.32,5.29));
#260 = DIRECTION('',(-0.928476690885,3.474474008057E-18,0.371390676354)
  );
#261 = DIRECTION('',(3.225968129567E-18,1.,-1.290387251827E-18));
#262 = ADVANCED_FACE('',(#263),#281,.T.);
#263 = FACE_BOUND('',#264,.T.);
#264 = EDGE_LOOP('',(#265,#266,#267,#275));
#265 = ORIENTED_EDGE('',*,*,#242,.T.);
#266 = ORIENTED_EDGE('',*,*,#135,.T.);
#267 = ORIENTED_EDGE('',*,*,#268,.T.);
#268 = EDGE_CURVE('',#128,#269,#271,.T.);
#269 = VERTEX_POINT('',#270);
#270 = CARTESIAN_POINT('',(0.12,0.12,5.54));
#271 = LINE('',#272,#273);
#272 = CARTESIAN_POINT('',(0.12,-0.32,5.54));
#273 = VECTOR('',#274,1.);
#274 = DIRECTION('',(0.,1.,0.));
#275 = ORIENTED_EDGE('',*,*,#276,.T.);
#276 = EDGE_CURVE('',#269,#243,#277,.T.);
#277 = LINE('',#278,#279);
#278 = CARTESIAN_POINT('',(0.32,0.12,5.54));
#279 = VECTOR('',#280,1.);
#280 = DIRECTION('',(-1.,0.,0.));
#281 = PLANE('',#282);
#282 = AXIS2_PLACEMENT_3D('',#283,#284,#285);
#283 = CARTESIAN_POINT('',(1.084202172486E-17,-1.084202172486E-17,5.54)
  );
#284 = DIRECTION('',(0.,0.,1.));
#285 = DIRECTION('',(1.,0.,0.));
#286 = ADVANCED_FACE('',(#287),#298,.T.);
#287 = FACE_BOUND('',#288,.F.);
#288 = EDGE_LOOP('',(#289,#290,#296,#297));
#289 = ORIENTED_EDGE('',*,*,#268,.T.);
#290 = ORIENTED_EDGE('',*,*,#291,.T.);
#291 = EDGE_CURVE('',#269,#190,#292,.T.);
#292 = LINE('',#293,#294);
#293 = CARTESIAN_POINT('',(0.193333333333,0.193333333333,5.356666666667)
  );
#294 = VECTOR('',#295,1.);
#295 = DIRECTION('',(0.348155311911,0.348155311911,-0.870388279778));
#296 = ORIENTED_EDGE('',*,*,#197,.F.);
#297 = ORIENTED_EDGE('',*,*,#127,.T.);
#298 = PLANE('',#299);
#299 = AXIS2_PLACEMENT_3D('',#300,#301,#302);
#300 = CARTESIAN_POINT('',(0.22,-0.32,5.29));
#301 = DIRECTION('',(0.928476690885,-3.474474008057E-18,0.371390676354)
  );
#302 = DIRECTION('',(-3.225968129567E-18,-1.,-1.290387251827E-18));
#303 = ADVANCED_FACE('',(#304),#320,.T.);
#304 = FACE_BOUND('',#305,.T.);
#305 = EDGE_LOOP('',(#306,#307,#313,#314));
#306 = ORIENTED_EDGE('',*,*,#189,.T.);
#307 = ORIENTED_EDGE('',*,*,#308,.F.);
#308 = EDGE_CURVE('',#150,#182,#309,.T.);
#309 = LINE('',#310,#311);
#310 = CARTESIAN_POINT('',(-0.32,0.32,-2.5));
#311 = VECTOR('',#312,1.);
#312 = DIRECTION('',(1.,0.,0.));
#313 = ORIENTED_EDGE('',*,*,#149,.T.);
#314 = ORIENTED_EDGE('',*,*,#315,.F.);
#315 = EDGE_CURVE('',#190,#152,#316,.T.);
#316 = LINE('',#317,#318);
#317 = CARTESIAN_POINT('',(0.32,0.32,5.04));
#318 = VECTOR('',#319,1.);
#319 = DIRECTION('',(-1.,0.,0.));
#320 = PLANE('',#321);
#321 = AXIS2_PLACEMENT_3D('',#322,#323,#324);
#322 = CARTESIAN_POINT('',(0.,0.32,1.27));
#323 = DIRECTION('',(0.,1.,0.));
#324 = DIRECTION('',(0.,0.,1.));
#325 = ADVANCED_FACE('',(#326),#344,.F.);
#326 = FACE_BOUND('',#327,.F.);
#327 = EDGE_LOOP('',(#328,#329,#337,#343));
#328 = ORIENTED_EDGE('',*,*,#227,.F.);
#329 = ORIENTED_EDGE('',*,*,#330,.T.);
#330 = EDGE_CURVE('',#220,#331,#333,.T.);
#331 = VERTEX_POINT('',#332);
#332 = CARTESIAN_POINT('',(-0.12,0.12,-3.));
#333 = LINE('',#334,#335);
#334 = CARTESIAN_POINT('',(-0.12,-0.32,-3.));
#335 = VECTOR('',#336,1.);
#336 = DIRECTION('',(0.,1.,0.));
#337 = ORIENTED_EDGE('',*,*,#338,.T.);
#338 = EDGE_CURVE('',#331,#150,#339,.T.);
#339 = LINE('',#340,#341);
#340 = CARTESIAN_POINT('',(-0.193333333333,0.193333333333,
    -2.816666666667));
#341 = VECTOR('',#342,1.);
#342 = DIRECTION('',(-0.348155311911,0.348155311911,0.870388279778));
#343 = ORIENTED_EDGE('',*,*,#159,.F.);
#344 = PLANE('',#345);
#345 = AXIS2_PLACEMENT_3D('',#346,#347,#348);
#346 = CARTESIAN_POINT('',(-0.22,-0.32,-2.75));
#347 = DIRECTION('',(0.928476690885,-3.474474008057E-18,0.371390676354)
  );
#348 = DIRECTION('',(3.225968129567E-18,1.,1.290387251827E-18));
#349 = ADVANCED_FACE('',(#350),#368,.F.);
#350 = FACE_BOUND('',#351,.F.);
#351 = EDGE_LOOP('',(#352,#360,#366,#367));
#352 = ORIENTED_EDGE('',*,*,#353,.F.);
#353 = EDGE_CURVE('',#354,#182,#356,.T.);
#354 = VERTEX_POINT('',#355);
#355 = CARTESIAN_POINT('',(0.12,0.12,-3.));
#356 = LINE('',#357,#358);
#357 = CARTESIAN_POINT('',(0.193333333333,0.193333333333,-2.816666666667
    ));
#358 = VECTOR('',#359,1.);
#359 = DIRECTION('',(0.348155311911,0.348155311911,0.870388279778));
#360 = ORIENTED_EDGE('',*,*,#361,.T.);
#361 = EDGE_CURVE('',#354,#212,#362,.T.);
#362 = LINE('',#363,#364);
#363 = CARTESIAN_POINT('',(0.12,0.32,-3.));
#364 = VECTOR('',#365,1.);
#365 = DIRECTION('',(0.,-1.,0.));
#366 = ORIENTED_EDGE('',*,*,#211,.T.);
#367 = ORIENTED_EDGE('',*,*,#181,.F.);
#368 = PLANE('',#369);
#369 = AXIS2_PLACEMENT_3D('',#370,#371,#372);
#370 = CARTESIAN_POINT('',(0.22,0.32,-2.75));
#371 = DIRECTION('',(-0.928476690885,3.474474008057E-18,0.371390676354)
  );
#372 = DIRECTION('',(-3.225968129567E-18,-1.,1.290387251827E-18));
#373 = ADVANCED_FACE('',(#374),#385,.F.);
#374 = FACE_BOUND('',#375,.F.);
#375 = EDGE_LOOP('',(#376,#377,#378,#384));
#376 = ORIENTED_EDGE('',*,*,#219,.F.);
#377 = ORIENTED_EDGE('',*,*,#361,.F.);
#378 = ORIENTED_EDGE('',*,*,#379,.F.);
#379 = EDGE_CURVE('',#331,#354,#380,.T.);
#380 = LINE('',#381,#382);
#381 = CARTESIAN_POINT('',(-0.32,0.12,-3.));
#382 = VECTOR('',#383,1.);
#383 = DIRECTION('',(1.,0.,0.));
#384 = ORIENTED_EDGE('',*,*,#330,.F.);
#385 = PLANE('',#386);
#386 = AXIS2_PLACEMENT_3D('',#387,#388,#389);
#387 = CARTESIAN_POINT('',(1.084202172486E-17,-1.084202172486E-17,-3.));
#388 = DIRECTION('',(0.,0.,1.));
#389 = DIRECTION('',(1.,0.,0.));
#390 = ADVANCED_FACE('',(#391),#397,.T.);
#391 = FACE_BOUND('',#392,.F.);
#392 = EDGE_LOOP('',(#393,#394,#395,#396));
#393 = ORIENTED_EDGE('',*,*,#291,.F.);
#394 = ORIENTED_EDGE('',*,*,#276,.T.);
#395 = ORIENTED_EDGE('',*,*,#252,.T.);
#396 = ORIENTED_EDGE('',*,*,#315,.F.);
#397 = PLANE('',#398);
#398 = AXIS2_PLACEMENT_3D('',#399,#400,#401);
#399 = CARTESIAN_POINT('',(0.32,0.22,5.29));
#400 = DIRECTION('',(3.474474008057E-18,0.928476690885,0.371390676354));
#401 = DIRECTION('',(1.,-3.225968129567E-18,-1.290387251827E-18));
#402 = ADVANCED_FACE('',(#403),#409,.F.);
#403 = FACE_BOUND('',#404,.F.);
#404 = EDGE_LOOP('',(#405,#406,#407,#408));
#405 = ORIENTED_EDGE('',*,*,#338,.F.);
#406 = ORIENTED_EDGE('',*,*,#379,.T.);
#407 = ORIENTED_EDGE('',*,*,#353,.T.);
#408 = ORIENTED_EDGE('',*,*,#308,.F.);
#409 = PLANE('',#410);
#410 = AXIS2_PLACEMENT_3D('',#411,#412,#413);
#411 = CARTESIAN_POINT('',(-0.32,0.22,-2.75));
#412 = DIRECTION('',(-3.474474008057E-18,-0.928476690885,0.371390676354)
  );
#413 = DIRECTION('',(1.,-3.225968129567E-18,1.290387251827E-18));
#414 = ( GEOMETRIC_REPRESENTATION_CONTEXT(3) 
GLOBAL_UNCERTAINTY_ASSIGNED_CONTEXT((#418)) GLOBAL_UNIT_ASSIGNED_CONTEXT
((#415,#416,#417)) REPRESENTATION_CONTEXT('Context #1',
  '3D Context with UNIT and UNCERTAINTY') );
#415 = ( LENGTH_UNIT() NAMED_UNIT(*) SI_UNIT(.MILLI.,.METRE.) );
#416 = ( NAMED_UNIT(*) PLANE_ANGLE_UNIT() SI_UNIT($,.RADIAN.) );
#417 = ( NAMED_UNIT(*) SI_UNIT($,.STERADIAN.) SOLID_ANGLE_UNIT() );
#418 = UNCERTAINTY_MEASURE_WITH_UNIT(LENGTH_MEASURE(1.E-07),#415,
  'distance_accuracy_value','confusion accuracy');
#419 = CONTEXT_DEPENDENT_SHAPE_REPRESENTATION(#420,#422);
#420 = ( REPRESENTATION_RELATIONSHIP('','',#71,#36) 
REPRESENTATION_RELATIONSHIP_WITH_TRANSFORMATION(#421) 
SHAPE_REPRESENTATION_RELATIONSHIP() );
#421 = ITEM_DEFINED_TRANSFORMATION('','',#11,#37);
#422 = PRODUCT_DEFINITION_SHAPE('Placement','Placement of an item',#423
  );
#423 = NEXT_ASSEMBLY_USAGE_OCCURRENCE('1','0','',#31,#66,$);
#424 = PRODUCT_RELATED_PRODUCT_CATEGORY('part',$,(#68));
#425 = CONTEXT_DEPENDENT_SHAPE_REPRESENTATION(#426,#428);
#426 = ( REPRESENTATION_RELATIONSHIP('','',#71,#36) 
REPRESENTATION_RELATIONSHIP_WITH_TRANSFORMATION(#427) 
SHAPE_REPRESENTATION_RELATIONSHIP() );
#427 = ITEM_DEFINED_TRANSFORMATION('','',#11,#41);
#428 = PRODUCT_DEFINITION_SHAPE('Placement','Placement of an item',#429
  );
#429 = NEXT_ASSEMBLY_USAGE_OCCURRENCE('2','1','',#31,#66,$);
#430 = CONTEXT_DEPENDENT_SHAPE_REPRESENTATION(#431,#433);
#431 = ( REPRESENTATION_RELATIONSHIP('','',#71,#36) 
REPRESENTATION_RELATIONSHIP_WITH_TRANSFORMATION(#432) 
SHAPE_REPRESENTATION_RELATIONSHIP() );
#432 = ITEM_DEFINED_TRANSFORMATION('','',#11,#45);
#433 = PRODUCT_DEFINITION_SHAPE('Placement','Placement of an item',#434
  );
#434 = NEXT_ASSEMBLY_USAGE_OCCURRENCE('3','2','',#31,#66,$);
#435 = CONTEXT_DEPENDENT_SHAPE_REPRESENTATION(#436,#438);
#436 = ( REPRESENTATION_RELATIONSHIP('','',#71,#36) 
REPRESENTATION_RELATIONSHIP_WITH_TRANSFORMATION(#437) 
SHAPE_REPRESENTATION_RELATIONSHIP() );
#437 = ITEM_DEFINED_TRANSFORMATION('','',#11,#49);
#438 = PRODUCT_DEFINITION_SHAPE('Placement','Placement of an item',#439
  );
#439 = NEXT_ASSEMBLY_USAGE_OCCURRENCE('4','3','',#31,#66,$);
#440 = SHAPE_DEFINITION_REPRESENTATION(#441,#447);
#441 = PRODUCT_DEFINITION_SHAPE('','',#442);
#442 = PRODUCT_DEFINITION('design','',#443,#446);
#443 = PRODUCT_DEFINITION_FORMATION('','',#444);
#444 = PRODUCT('Array','Array','',(#445));
#445 = PRODUCT_CONTEXT('',#2,'mechanical');
#446 = PRODUCT_DEFINITION_CONTEXT('part definition',#2,'design');
#447 = SHAPE_REPRESENTATION('',(#11,#448,#452,#456,#460),#464);
#448 = AXIS2_PLACEMENT_3D('',#449,#450,#451);
#449 = CARTESIAN_POINT('',(0.,0.,0.));
#450 = DIRECTION('',(0.,0.,1.));
#451 = DIRECTION('',(1.,0.,0.));
#452 = AXIS2_PLACEMENT_3D('',#453,#454,#455);
#453 = CARTESIAN_POINT('',(2.54,0.,0.));
#454 = DIRECTION('',(0.,0.,1.));
#455 = DIRECTION('',(1.,0.,0.));
#456 = AXIS2_PLACEMENT_3D('',#457,#458,#459);
#457 = CARTESIAN_POINT('',(5.08,0.,0.));
#458 = DIRECTION('',(0.,0.,1.));
#459 = DIRECTION('',(1.,0.,0.));
#460 = AXIS2_PLACEMENT_3D('',#461,#462,#463);
#461 = CARTESIAN_POINT('',(7.62,0.,0.));
#462 = DIRECTION('',(0.,0.,1.));
#463 = DIRECTION('',(1.,0.,0.));
#464 = ( GEOMETRIC_REPRESENTATION_CONTEXT(3) 
GLOBAL_UNCERTAINTY_ASSIGNED_CONTEXT((#468)) GLOBAL_UNIT_ASSIGNED_CONTEXT
((#465,#466,#467)) REPRESENTATION_CONTEXT('Context #1',
  '3D Context with UNIT and UNCERTAINTY') );
#465 = ( LENGTH_UNIT() NAMED_UNIT(*) SI_UNIT(.MILLI.,.METRE.) );
#466 = ( NAMED_UNIT(*) PLANE_ANGLE_UNIT() SI_UNIT($,.RADIAN.) );
#467 = ( NAMED_UNIT(*) SI_UNIT($,.STERADIAN.) SOLID_ANGLE_UNIT() );
#468 = UNCERTAINTY_MEASURE_WITH_UNIT(LENGTH_MEASURE(2.E-07),#465,
  'distance_accuracy_value','confusion accuracy');
#469 = CONTEXT_DEPENDENT_SHAPE_REPRESENTATION(#470,#472);
#470 = ( REPRESENTATION_RELATIONSHIP('','',#447,#10) 
REPRESENTATION_RELATIONSHIP_WITH_TRANSFORMATION(#471) 
SHAPE_REPRESENTATION_RELATIONSHIP() );
#471 = ITEM_DEFINED_TRANSFORMATION('','',#11,#19);
#472 = PRODUCT_DEFINITION_SHAPE('Placement','Placement of an item',#473
  );
#473 = NEXT_ASSEMBLY_USAGE_OCCURRENCE('10','Array','',#5,#442,$);
#474 = PRODUCT_RELATED_PRODUCT_CATEGORY('part',$,(#444));
#475 = SHAPE_DEFINITION_REPRESENTATION(#476,#482);
#476 = PRODUCT_DEFINITION_SHAPE('','',#477);
#477 = PRODUCT_DEFINITION('design','',#478,#481);
#478 = PRODUCT_DEFINITION_FORMATION('','',#479);
#479 = PRODUCT('Body','Body','',(#480));
#480 = PRODUCT_CONTEXT('',#2,'mechanical');
#481 = PRODUCT_DEFINITION_CONTEXT('part definition',#2,'design');
#482 = ADVANCED_BREP_SHAPE_REPRESENTATION('',(#11,#483),#1225);
#483 = MANIFOLD_SOLID_BREP('',#484);
#484 = CLOSED_SHELL('',(#485,#623,#677,#708,#732,#786,#810,#834,#851,
    #875,#892,#923,#954,#978,#1002,#1019,#1043,#1071,#1083,#1107,#1131,
    #1148,#1172,#1184,#1201,#1213));
#485 = ADVANCED_FACE('',(#486,#584),#618,.T.);
#486 = FACE_BOUND('',#487,.T.);
#487 = EDGE_LOOP('',(#488,#498,#506,#514,#522,#530,#538,#546,#554,#562,
    #570,#578));
#488 = ORIENTED_EDGE('',*,*,#489,.F.);
#489 = EDGE_CURVE('',#490,#492,#494,.T.);
#490 = VERTEX_POINT('',#491);
#491 = CARTESIAN_POINT('',(1.12,-1.27,0.5));
#492 = VERTEX_POINT('',#493);
#493 = CARTESIAN_POINT('',(1.121,-1.27,0.5));
#494 = LINE('',#495,#496);
#495 = CARTESIAN_POINT('',(1.12,-1.27,0.5));
#496 = VECTOR('',#497,1.);
#497 = DIRECTION('',(1.,0.,0.));
#498 = ORIENTED_EDGE('',*,*,#499,.T.);
#499 = EDGE_CURVE('',#490,#500,#502,.T.);
#500 = VERTEX_POINT('',#501);
#501 = CARTESIAN_POINT('',(1.12,-1.12,0.5));
#502 = LINE('',#503,#504);
#503 = CARTESIAN_POINT('',(1.12,-1.27,0.5));
#504 = VECTOR('',#505,1.);
#505 = DIRECTION('',(0.,1.,0.));
#506 = ORIENTED_EDGE('',*,*,#507,.T.);
#507 = EDGE_CURVE('',#500,#508,#510,.T.);
#508 = VERTEX_POINT('',#509);
#509 = CARTESIAN_POINT('',(-1.12,-1.12,0.5));
#510 = LINE('',#511,#512);
#511 = CARTESIAN_POINT('',(1.12,-1.12,0.5));
#512 = VECTOR('',#513,1.);
#513 = DIRECTION('',(-1.,-0.,-0.));
#514 = ORIENTED_EDGE('',*,*,#515,.T.);
#515 = EDGE_CURVE('',#508,#516,#518,.T.);
#516 = VERTEX_POINT('',#517);
#517 = CARTESIAN_POINT('',(-1.12,-1.27,0.5));
#518 = LINE('',#519,#520);
#519 = CARTESIAN_POINT('',(-1.12,1.27,0.5));
#520 = VECTOR('',#521,1.);
#521 = DIRECTION('',(0.,-1.,0.));
#522 = ORIENTED_EDGE('',*,*,#523,.T.);
#523 = EDGE_CURVE('',#516,#524,#526,.T.);
#524 = VERTEX_POINT('',#525);
#525 = CARTESIAN_POINT('',(-1.121,-1.27,0.5));
#526 = LINE('',#527,#528);
#527 = CARTESIAN_POINT('',(-1.12,-1.27,0.5));
#528 = VECTOR('',#529,1.);
#529 = DIRECTION('',(-1.,0.,0.));
#530 = ORIENTED_EDGE('',*,*,#531,.F.);
#531 = EDGE_CURVE('',#532,#524,#534,.T.);
#532 = VERTEX_POINT('',#533);
#533 = CARTESIAN_POINT('',(-1.121,1.27,0.5));
#534 = LINE('',#535,#536);
#535 = CARTESIAN_POINT('',(-1.121,1.27,0.5));
#536 = VECTOR('',#537,1.);
#537 = DIRECTION('',(0.,-1.,0.));
#538 = ORIENTED_EDGE('',*,*,#539,.F.);
#539 = EDGE_CURVE('',#540,#532,#542,.T.);
#540 = VERTEX_POINT('',#541);
#541 = CARTESIAN_POINT('',(-1.12,1.27,0.5));
#542 = LINE('',#543,#544);
#543 = CARTESIAN_POINT('',(-1.12,1.27,0.5));
#544 = VECTOR('',#545,1.);
#545 = DIRECTION('',(-1.,0.,0.));
#546 = ORIENTED_EDGE('',*,*,#547,.T.);
#547 = EDGE_CURVE('',#540,#548,#550,.T.);
#548 = VERTEX_POINT('',#549);
#549 = CARTESIAN_POINT('',(-1.12,1.12,0.5));
#550 = LINE('',#551,#552);
#551 = CARTESIAN_POINT('',(-1.12,1.27,0.5));
#552 = VECTOR('',#553,1.);
#553 = DIRECTION('',(0.,-1.,0.));
#554 = ORIENTED_EDGE('',*,*,#555,.F.);
#555 = EDGE_CURVE('',#556,#548,#558,.T.);
#556 = VERTEX_POINT('',#557);
#557 = CARTESIAN_POINT('',(1.12,1.12,0.5));
#558 = LINE('',#559,#560);
#559 = CARTESIAN_POINT('',(1.12,1.12,0.5));
#560 = VECTOR('',#561,1.);
#561 = DIRECTION('',(-1.,-0.,-0.));
#562 = ORIENTED_EDGE('',*,*,#563,.T.);
#563 = EDGE_CURVE('',#556,#564,#566,.T.);
#564 = VERTEX_POINT('',#565);
#565 = CARTESIAN_POINT('',(1.12,1.27,0.5));
#566 = LINE('',#567,#568);
#567 = CARTESIAN_POINT('',(1.12,-1.27,0.5));
#568 = VECTOR('',#569,1.);
#569 = DIRECTION('',(0.,1.,0.));
#570 = ORIENTED_EDGE('',*,*,#571,.T.);
#571 = EDGE_CURVE('',#564,#572,#574,.T.);
#572 = VERTEX_POINT('',#573);
#573 = CARTESIAN_POINT('',(1.121,1.27,0.5));
#574 = LINE('',#575,#576);
#575 = CARTESIAN_POINT('',(1.12,1.27,0.5));
#576 = VECTOR('',#577,1.);
#577 = DIRECTION('',(1.,0.,0.));
#578 = ORIENTED_EDGE('',*,*,#579,.F.);
#579 = EDGE_CURVE('',#492,#572,#580,.T.);
#580 = LINE('',#581,#582);
#581 = CARTESIAN_POINT('',(1.121,-1.27,0.5));
#582 = VECTOR('',#583,1.);
#583 = DIRECTION('',(0.,1.,0.));
#584 = FACE_BOUND('',#585,.T.);
#585 = EDGE_LOOP('',(#586,#596,#604,#612));
#586 = ORIENTED_EDGE('',*,*,#587,.F.);
#587 = EDGE_CURVE('',#588,#590,#592,.T.);
#588 = VERTEX_POINT('',#589);
#589 = CARTESIAN_POINT('',(0.32,-0.32,0.5));
#590 = VERTEX_POINT('',#591);
#591 = CARTESIAN_POINT('',(-0.32,-0.32,0.5));
#592 = LINE('',#593,#594);
#593 = CARTESIAN_POINT('',(-0.16,-0.32,0.5));
#594 = VECTOR('',#595,1.);
#595 = DIRECTION('',(-1.,0.,0.));
#596 = ORIENTED_EDGE('',*,*,#597,.F.);
#597 = EDGE_CURVE('',#598,#588,#600,.T.);
#598 = VERTEX_POINT('',#599);
#599 = CARTESIAN_POINT('',(0.32,0.32,0.5));
#600 = LINE('',#601,#602);
#601 = CARTESIAN_POINT('',(0.32,-0.16,0.5));
#602 = VECTOR('',#603,1.);
#603 = DIRECTION('',(0.,-1.,0.));
#604 = ORIENTED_EDGE('',*,*,#605,.F.);
#605 = EDGE_CURVE('',#606,#598,#608,.T.);
#606 = VERTEX_POINT('',#607);
#607 = CARTESIAN_POINT('',(-0.32,0.32,0.5));
#608 = LINE('',#609,#610);
#609 = CARTESIAN_POINT('',(0.16,0.32,0.5));
#610 = VECTOR('',#611,1.);
#611 = DIRECTION('',(1.,0.,0.));
#612 = ORIENTED_EDGE('',*,*,#613,.F.);
#613 = EDGE_CURVE('',#590,#606,#614,.T.);
#614 = LINE('',#615,#616);
#615 = CARTESIAN_POINT('',(-0.32,0.16,0.5));
#616 = VECTOR('',#617,1.);
#617 = DIRECTION('',(0.,1.,0.));
#618 = PLANE('',#619);
#619 = AXIS2_PLACEMENT_3D('',#620,#621,#622);
#620 = CARTESIAN_POINT('',(0.,0.,0.5));
#621 = DIRECTION('',(-0.,-0.,-1.));
#622 = DIRECTION('',(-1.,0.,0.));
#623 = ADVANCED_FACE('',(#624),#672,.T.);
#624 = FACE_BOUND('',#625,.T.);
#625 = EDGE_LOOP('',(#626,#627,#635,#643,#649,#650,#658,#666));
#626 = ORIENTED_EDGE('',*,*,#489,.T.);
#627 = ORIENTED_EDGE('',*,*,#628,.F.);
#628 = EDGE_CURVE('',#629,#492,#631,.T.);
#629 = VERTEX_POINT('',#630);
#630 = CARTESIAN_POINT('',(1.121,-1.27,2.54));
#631 = LINE('',#632,#633);
#632 = CARTESIAN_POINT('',(1.121,-1.27,2.54));
#633 = VECTOR('',#634,1.);
#634 = DIRECTION('',(0.,0.,-1.));
#635 = ORIENTED_EDGE('',*,*,#636,.F.);
#636 = EDGE_CURVE('',#637,#629,#639,.T.);
#637 = VERTEX_POINT('',#638);
#638 = CARTESIAN_POINT('',(-1.121,-1.27,2.54));
#639 = LINE('',#640,#641);
#640 = CARTESIAN_POINT('',(1.12,-1.27,2.54));
#641 = VECTOR('',#642,1.);
#642 = DIRECTION('',(1.,0.,0.));
#643 = ORIENTED_EDGE('',*,*,#644,.F.);
#644 = EDGE_CURVE('',#524,#637,#645,.T.);
#645 = LINE('',#646,#647);
#646 = CARTESIAN_POINT('',(-1.121,-1.27,0.5));
#647 = VECTOR('',#648,1.);
#648 = DIRECTION('',(0.,0.,1.));
#649 = ORIENTED_EDGE('',*,*,#523,.F.);
#650 = ORIENTED_EDGE('',*,*,#651,.F.);
#651 = EDGE_CURVE('',#652,#516,#654,.T.);
#652 = VERTEX_POINT('',#653);
#653 = CARTESIAN_POINT('',(-1.12,-1.27,0.));
#654 = LINE('',#655,#656);
#655 = CARTESIAN_POINT('',(-1.12,-1.27,0.));
#656 = VECTOR('',#657,1.);
#657 = DIRECTION('',(0.,0.,1.));
#658 = ORIENTED_EDGE('',*,*,#659,.T.);
#659 = EDGE_CURVE('',#652,#660,#662,.T.);
#660 = VERTEX_POINT('',#661);
#661 = CARTESIAN_POINT('',(1.12,-1.27,0.));
#662 = LINE('',#663,#664);
#663 = CARTESIAN_POINT('',(-1.12,-1.27,0.));
#664 = VECTOR('',#665,1.);
#665 = DIRECTION('',(1.,0.,0.));
#666 = ORIENTED_EDGE('',*,*,#667,.T.);
#667 = EDGE_CURVE('',#660,#490,#668,.T.);
#668 = LINE('',#669,#670);
#669 = CARTESIAN_POINT('',(1.12,-1.27,0.));
#670 = VECTOR('',#671,1.);
#671 = DIRECTION('',(0.,0.,1.));
#672 = PLANE('',#673);
#673 = AXIS2_PLACEMENT_3D('',#674,#675,#676);
#674 = CARTESIAN_POINT('',(-2.185478394931E-17,-1.27,1.284763779528));
#675 = DIRECTION('',(-0.,-1.,-0.));
#676 = DIRECTION('',(0.,0.,-1.));
#677 = ADVANCED_FACE('',(#678),#703,.T.);
#678 = FACE_BOUND('',#679,.T.);
#679 = EDGE_LOOP('',(#680,#688,#689,#697));
#680 = ORIENTED_EDGE('',*,*,#681,.F.);
#681 = EDGE_CURVE('',#492,#682,#684,.T.);
#682 = VERTEX_POINT('',#683);
#683 = CARTESIAN_POINT('',(1.27,-1.121,0.649));
#684 = LINE('',#685,#686);
#685 = CARTESIAN_POINT('',(1.510666666667,-0.880333333333,0.889666666667
    ));
#686 = VECTOR('',#687,1.);
#687 = DIRECTION('',(0.57735026919,0.57735026919,0.57735026919));
#688 = ORIENTED_EDGE('',*,*,#579,.T.);
#689 = ORIENTED_EDGE('',*,*,#690,.F.);
#690 = EDGE_CURVE('',#691,#572,#693,.T.);
#691 = VERTEX_POINT('',#692);
#692 = CARTESIAN_POINT('',(1.27,1.121,0.649));
#693 = LINE('',#694,#695);
#694 = CARTESIAN_POINT('',(1.594,0.797,0.973));
#695 = VECTOR('',#696,1.);
#696 = DIRECTION('',(-0.57735026919,0.57735026919,-0.57735026919));
#697 = ORIENTED_EDGE('',*,*,#698,.F.);
#698 = EDGE_CURVE('',#682,#691,#699,.T.);
#699 = LINE('',#700,#701);
#700 = CARTESIAN_POINT('',(1.27,-1.27,0.649));
#701 = VECTOR('',#702,1.);
#702 = DIRECTION('',(0.,1.,0.));
#703 = PLANE('',#704);
#704 = AXIS2_PLACEMENT_3D('',#705,#706,#707);
#705 = CARTESIAN_POINT('',(1.1955,-1.27,0.5745));
#706 = DIRECTION('',(0.707106781187,0.,-0.707106781187));
#707 = DIRECTION('',(0.,1.,0.));
#708 = ADVANCED_FACE('',(#709),#727,.F.);
#709 = FACE_BOUND('',#710,.F.);
#710 = EDGE_LOOP('',(#711,#719,#720,#721));
#711 = ORIENTED_EDGE('',*,*,#712,.F.);
#712 = EDGE_CURVE('',#660,#713,#715,.T.);
#713 = VERTEX_POINT('',#714);
#714 = CARTESIAN_POINT('',(1.12,-1.12,0.));
#715 = LINE('',#716,#717);
#716 = CARTESIAN_POINT('',(1.12,-1.27,0.));
#717 = VECTOR('',#718,1.);
#718 = DIRECTION('',(0.,1.,0.));
#719 = ORIENTED_EDGE('',*,*,#667,.T.);
#720 = ORIENTED_EDGE('',*,*,#499,.T.);
#721 = ORIENTED_EDGE('',*,*,#722,.T.);
#722 = EDGE_CURVE('',#500,#713,#723,.T.);
#723 = LINE('',#724,#725);
#724 = CARTESIAN_POINT('',(1.12,-1.12,0.5));
#725 = VECTOR('',#726,1.);
#726 = DIRECTION('',(0.,0.,-1.));
#727 = PLANE('',#728);
#728 = AXIS2_PLACEMENT_3D('',#729,#730,#731);
#729 = CARTESIAN_POINT('',(1.12,-1.27,0.));
#730 = DIRECTION('',(-1.,0.,0.));
#731 = DIRECTION('',(0.,1.,0.));
#732 = ADVANCED_FACE('',(#733),#781,.T.);
#733 = FACE_BOUND('',#734,.T.);
#734 = EDGE_LOOP('',(#735,#736,#744,#752,#758,#759,#767,#775));
#735 = ORIENTED_EDGE('',*,*,#539,.T.);
#736 = ORIENTED_EDGE('',*,*,#737,.F.);
#737 = EDGE_CURVE('',#738,#532,#740,.T.);
#738 = VERTEX_POINT('',#739);
#739 = CARTESIAN_POINT('',(-1.121,1.27,2.54));
#740 = LINE('',#741,#742);
#741 = CARTESIAN_POINT('',(-1.121,1.27,2.54));
#742 = VECTOR('',#743,1.);
#743 = DIRECTION('',(0.,0.,-1.));
#744 = ORIENTED_EDGE('',*,*,#745,.F.);
#745 = EDGE_CURVE('',#746,#738,#748,.T.);
#746 = VERTEX_POINT('',#747);
#747 = CARTESIAN_POINT('',(1.121,1.27,2.54));
#748 = LINE('',#749,#750);
#749 = CARTESIAN_POINT('',(-1.12,1.27,2.54));
#750 = VECTOR('',#751,1.);
#751 = DIRECTION('',(-1.,0.,0.));
#752 = ORIENTED_EDGE('',*,*,#753,.F.);
#753 = EDGE_CURVE('',#572,#746,#754,.T.);
#754 = LINE('',#755,#756);
#755 = CARTESIAN_POINT('',(1.121,1.27,0.5));
#756 = VECTOR('',#757,1.);
#757 = DIRECTION('',(0.,0.,1.));
#758 = ORIENTED_EDGE('',*,*,#571,.F.);
#759 = ORIENTED_EDGE('',*,*,#760,.F.);
#760 = EDGE_CURVE('',#761,#564,#763,.T.);
#761 = VERTEX_POINT('',#762);
#762 = CARTESIAN_POINT('',(1.12,1.27,0.));
#763 = LINE('',#764,#765);
#764 = CARTESIAN_POINT('',(1.12,1.27,0.));
#765 = VECTOR('',#766,1.);
#766 = DIRECTION('',(0.,0.,1.));
#767 = ORIENTED_EDGE('',*,*,#768,.T.);
#768 = EDGE_CURVE('',#761,#769,#771,.T.);
#769 = VERTEX_POINT('',#770);
#770 = CARTESIAN_POINT('',(-1.12,1.27,0.));
#771 = LINE('',#772,#773);
#772 = CARTESIAN_POINT('',(1.12,1.27,0.));
#773 = VECTOR('',#774,1.);
#774 = DIRECTION('',(-1.,0.,0.));
#775 = ORIENTED_EDGE('',*,*,#776,.T.);
#776 = EDGE_CURVE('',#769,#540,#777,.T.);
#777 = LINE('',#778,#779);
#778 = CARTESIAN_POINT('',(-1.12,1.27,0.));
#779 = VECTOR('',#780,1.);
#780 = DIRECTION('',(0.,0.,1.));
#781 = PLANE('',#782);
#782 = AXIS2_PLACEMENT_3D('',#783,#784,#785);
#783 = CARTESIAN_POINT('',(-6.556435184794E-17,1.27,1.284763779528));
#784 = DIRECTION('',(0.,1.,0.));
#785 = DIRECTION('',(0.,0.,1.));
#786 = ADVANCED_FACE('',(#787),#805,.F.);
#787 = FACE_BOUND('',#788,.F.);
#788 = EDGE_LOOP('',(#789,#790,#798,#804));
#789 = ORIENTED_EDGE('',*,*,#507,.T.);
#790 = ORIENTED_EDGE('',*,*,#791,.T.);
#791 = EDGE_CURVE('',#508,#792,#794,.T.);
#792 = VERTEX_POINT('',#793);
#793 = CARTESIAN_POINT('',(-1.12,-1.12,0.));
#794 = LINE('',#795,#796);
#795 = CARTESIAN_POINT('',(-1.12,-1.12,0.5));
#796 = VECTOR('',#797,1.);
#797 = DIRECTION('',(0.,0.,-1.));
#798 = ORIENTED_EDGE('',*,*,#799,.F.);
#799 = EDGE_CURVE('',#713,#792,#800,.T.);
#800 = LINE('',#801,#802);
#801 = CARTESIAN_POINT('',(1.12,-1.12,0.));
#802 = VECTOR('',#803,1.);
#803 = DIRECTION('',(-1.,-0.,-0.));
#804 = ORIENTED_EDGE('',*,*,#722,.F.);
#805 = PLANE('',#806);
#806 = AXIS2_PLACEMENT_3D('',#807,#808,#809);
#807 = CARTESIAN_POINT('',(1.12,-1.12,0.5));
#808 = DIRECTION('',(0.,-1.,0.));
#809 = DIRECTION('',(0.,0.,-1.));
#810 = ADVANCED_FACE('',(#811),#829,.F.);
#811 = FACE_BOUND('',#812,.F.);
#812 = EDGE_LOOP('',(#813,#821,#827,#828));
#813 = ORIENTED_EDGE('',*,*,#814,.F.);
#814 = EDGE_CURVE('',#815,#761,#817,.T.);
#815 = VERTEX_POINT('',#816);
#816 = CARTESIAN_POINT('',(1.12,1.12,0.));
#817 = LINE('',#818,#819);
#818 = CARTESIAN_POINT('',(1.12,-1.27,0.));
#819 = VECTOR('',#820,1.);
#820 = DIRECTION('',(0.,1.,0.));
#821 = ORIENTED_EDGE('',*,*,#822,.T.);
#822 = EDGE_CURVE('',#815,#556,#823,.T.);
#823 = LINE('',#824,#825);
#824 = CARTESIAN_POINT('',(1.12,1.12,0.));
#825 = VECTOR('',#826,1.);
#826 = DIRECTION('',(0.,0.,1.));
#827 = ORIENTED_EDGE('',*,*,#563,.T.);
#828 = ORIENTED_EDGE('',*,*,#760,.F.);
#829 = PLANE('',#830);
#830 = AXIS2_PLACEMENT_3D('',#831,#832,#833);
#831 = CARTESIAN_POINT('',(1.12,-1.27,0.));
#832 = DIRECTION('',(-1.,0.,0.));
#833 = DIRECTION('',(0.,1.,0.));
#834 = ADVANCED_FACE('',(#835),#846,.F.);
#835 = FACE_BOUND('',#836,.F.);
#836 = EDGE_LOOP('',(#837,#843,#844,#845));
#837 = ORIENTED_EDGE('',*,*,#838,.F.);
#838 = EDGE_CURVE('',#792,#652,#839,.T.);
#839 = LINE('',#840,#841);
#840 = CARTESIAN_POINT('',(-1.12,1.27,0.));
#841 = VECTOR('',#842,1.);
#842 = DIRECTION('',(0.,-1.,0.));
#843 = ORIENTED_EDGE('',*,*,#791,.F.);
#844 = ORIENTED_EDGE('',*,*,#515,.T.);
#845 = ORIENTED_EDGE('',*,*,#651,.F.);
#846 = PLANE('',#847);
#847 = AXIS2_PLACEMENT_3D('',#848,#849,#850);
#848 = CARTESIAN_POINT('',(-1.12,1.27,0.));
#849 = DIRECTION('',(1.,0.,0.));
#850 = DIRECTION('',(0.,-1.,0.));
#851 = ADVANCED_FACE('',(#852),#870,.F.);
#852 = FACE_BOUND('',#853,.F.);
#853 = EDGE_LOOP('',(#854,#862,#868,#869));
#854 = ORIENTED_EDGE('',*,*,#855,.T.);
#855 = EDGE_CURVE('',#815,#856,#858,.T.);
#856 = VERTEX_POINT('',#857);
#857 = CARTESIAN_POINT('',(-1.12,1.12,0.));
#858 = LINE('',#859,#860);
#859 = CARTESIAN_POINT('',(1.12,1.12,0.));
#860 = VECTOR('',#861,1.);
#861 = DIRECTION('',(-1.,-0.,-0.));
#862 = ORIENTED_EDGE('',*,*,#863,.T.);
#863 = EDGE_CURVE('',#856,#548,#864,.T.);
#864 = LINE('',#865,#866);
#865 = CARTESIAN_POINT('',(-1.12,1.12,0.));
#866 = VECTOR('',#867,1.);
#867 = DIRECTION('',(0.,0.,1.));
#868 = ORIENTED_EDGE('',*,*,#555,.F.);
#869 = ORIENTED_EDGE('',*,*,#822,.F.);
#870 = PLANE('',#871);
#871 = AXIS2_PLACEMENT_3D('',#872,#873,#874);
#872 = CARTESIAN_POINT('',(1.12,1.12,0.));
#873 = DIRECTION('',(0.,1.,0.));
#874 = DIRECTION('',(0.,0.,1.));
#875 = ADVANCED_FACE('',(#876),#887,.F.);
#876 = FACE_BOUND('',#877,.F.);
#877 = EDGE_LOOP('',(#878,#884,#885,#886));
#878 = ORIENTED_EDGE('',*,*,#879,.F.);
#879 = EDGE_CURVE('',#769,#856,#880,.T.);
#880 = LINE('',#881,#882);
#881 = CARTESIAN_POINT('',(-1.12,1.27,0.));
#882 = VECTOR('',#883,1.);
#883 = DIRECTION('',(0.,-1.,0.));
#884 = ORIENTED_EDGE('',*,*,#776,.T.);
#885 = ORIENTED_EDGE('',*,*,#547,.T.);
#886 = ORIENTED_EDGE('',*,*,#863,.F.);
#887 = PLANE('',#888);
#888 = AXIS2_PLACEMENT_3D('',#889,#890,#891);
#889 = CARTESIAN_POINT('',(-1.12,1.27,0.));
#890 = DIRECTION('',(1.,0.,0.));
#891 = DIRECTION('',(0.,-1.,0.));
#892 = ADVANCED_FACE('',(#893),#918,.F.);
#893 = FACE_BOUND('',#894,.T.);
#894 = EDGE_LOOP('',(#895,#903,#904,#912));
#895 = ORIENTED_EDGE('',*,*,#896,.F.);
#896 = EDGE_CURVE('',#532,#897,#899,.T.);
#897 = VERTEX_POINT('',#898);
#898 = CARTESIAN_POINT('',(-1.27,1.121,0.649));
#899 = LINE('',#900,#901);
#900 = CARTESIAN_POINT('',(-1.510666666667,0.880333333333,0.889666666667
    ));
#901 = VECTOR('',#902,1.);
#902 = DIRECTION('',(-0.57735026919,-0.57735026919,0.57735026919));
#903 = ORIENTED_EDGE('',*,*,#531,.T.);
#904 = ORIENTED_EDGE('',*,*,#905,.T.);
#905 = EDGE_CURVE('',#524,#906,#908,.T.);
#906 = VERTEX_POINT('',#907);
#907 = CARTESIAN_POINT('',(-1.27,-1.121,0.649));
#908 = LINE('',#909,#910);
#909 = CARTESIAN_POINT('',(-1.594,-0.797,0.973));
#910 = VECTOR('',#911,1.);
#911 = DIRECTION('',(-0.57735026919,0.57735026919,0.57735026919));
#912 = ORIENTED_EDGE('',*,*,#913,.F.);
#913 = EDGE_CURVE('',#897,#906,#914,.T.);
#914 = LINE('',#915,#916);
#915 = CARTESIAN_POINT('',(-1.27,1.27,0.649));
#916 = VECTOR('',#917,1.);
#917 = DIRECTION('',(0.,-1.,0.));
#918 = PLANE('',#919);
#919 = AXIS2_PLACEMENT_3D('',#920,#921,#922);
#920 = CARTESIAN_POINT('',(-1.1955,1.27,0.5745));
#921 = DIRECTION('',(0.707106781187,0.,0.707106781187));
#922 = DIRECTION('',(-0.,1.,-0.));
#923 = ADVANCED_FACE('',(#924),#949,.F.);
#924 = FACE_BOUND('',#925,.F.);
#925 = EDGE_LOOP('',(#926,#936,#942,#943));
#926 = ORIENTED_EDGE('',*,*,#927,.F.);
#927 = EDGE_CURVE('',#928,#930,#932,.T.);
#928 = VERTEX_POINT('',#929);
#929 = CARTESIAN_POINT('',(-0.32,-0.32,2.54));
#930 = VERTEX_POINT('',#931);
#931 = CARTESIAN_POINT('',(0.32,-0.32,2.54));
#932 = LINE('',#933,#934);
#933 = CARTESIAN_POINT('',(-0.32,-0.32,2.54));
#934 = VECTOR('',#935,1.);
#935 = DIRECTION('',(1.,0.,0.));
#936 = ORIENTED_EDGE('',*,*,#937,.T.);
#937 = EDGE_CURVE('',#928,#590,#938,.T.);
#938 = LINE('',#939,#940);
#939 = CARTESIAN_POINT('',(-0.32,-0.32,2.54));
#940 = VECTOR('',#941,1.);
#941 = DIRECTION('',(-0.,-0.,-1.));
#942 = ORIENTED_EDGE('',*,*,#587,.F.);
#943 = ORIENTED_EDGE('',*,*,#944,.F.);
#944 = EDGE_CURVE('',#930,#588,#945,.T.);
#945 = LINE('',#946,#947);
#946 = CARTESIAN_POINT('',(0.32,-0.32,2.54));
#947 = VECTOR('',#948,1.);
#948 = DIRECTION('',(-0.,-0.,-1.));
#949 = PLANE('',#950);
#950 = AXIS2_PLACEMENT_3D('',#951,#952,#953);
#951 = CARTESIAN_POINT('',(-0.32,-0.32,2.54));
#952 = DIRECTION('',(0.,-1.,0.));
#953 = DIRECTION('',(1.,0.,0.));
#954 = ADVANCED_FACE('',(#955),#973,.F.);
#955 = FACE_BOUND('',#956,.F.);
#956 = EDGE_LOOP('',(#957,#965,#971,#972));
#957 = ORIENTED_EDGE('',*,*,#958,.F.);
#958 = EDGE_CURVE('',#959,#928,#961,.T.);
#959 = VERTEX_POINT('',#960);
#960 = CARTESIAN_POINT('',(-0.32,0.32,2.54));
#961 = LINE('',#962,#963);
#962 = CARTESIAN_POINT('',(-0.32,0.32,2.54));
#963 = VECTOR('',#964,1.);
#964 = DIRECTION('',(0.,-1.,0.));
#965 = ORIENTED_EDGE('',*,*,#966,.T.);
#966 = EDGE_CURVE('',#959,#606,#967,.T.);
#967 = LINE('',#968,#969);
#968 = CARTESIAN_POINT('',(-0.32,0.32,2.54));
#969 = VECTOR('',#970,1.);
#970 = DIRECTION('',(-0.,-0.,-1.));
#971 = ORIENTED_EDGE('',*,*,#613,.F.);
#972 = ORIENTED_EDGE('',*,*,#937,.F.);
#973 = PLANE('',#974);
#974 = AXIS2_PLACEMENT_3D('',#975,#976,#977);
#975 = CARTESIAN_POINT('',(-0.32,0.32,2.54));
#976 = DIRECTION('',(-1.,0.,0.));
#977 = DIRECTION('',(0.,-1.,0.));
#978 = ADVANCED_FACE('',(#979),#997,.F.);
#979 = FACE_BOUND('',#980,.F.);
#980 = EDGE_LOOP('',(#981,#989,#995,#996));
#981 = ORIENTED_EDGE('',*,*,#982,.F.);
#982 = EDGE_CURVE('',#983,#959,#985,.T.);
#983 = VERTEX_POINT('',#984);
#984 = CARTESIAN_POINT('',(0.32,0.32,2.54));
#985 = LINE('',#986,#987);
#986 = CARTESIAN_POINT('',(0.32,0.32,2.54));
#987 = VECTOR('',#988,1.);
#988 = DIRECTION('',(-1.,0.,0.));
#989 = ORIENTED_EDGE('',*,*,#990,.T.);
#990 = EDGE_CURVE('',#983,#598,#991,.T.);
#991 = LINE('',#992,#993);
#992 = CARTESIAN_POINT('',(0.32,0.32,2.54));
#993 = VECTOR('',#994,1.);
#994 = DIRECTION('',(-0.,-0.,-1.));
#995 = ORIENTED_EDGE('',*,*,#605,.F.);
#996 = ORIENTED_EDGE('',*,*,#966,.F.);
#997 = PLANE('',#998);
#998 = AXIS2_PLACEMENT_3D('',#999,#1000,#1001);
#999 = CARTESIAN_POINT('',(0.32,0.32,2.54));
#1000 = DIRECTION('',(0.,1.,0.));
#1001 = DIRECTION('',(-1.,0.,0.));
#1002 = ADVANCED_FACE('',(#1003),#1014,.F.);
#1003 = FACE_BOUND('',#1004,.F.);
#1004 = EDGE_LOOP('',(#1005,#1011,#1012,#1013));
#1005 = ORIENTED_EDGE('',*,*,#1006,.F.);
#1006 = EDGE_CURVE('',#930,#983,#1007,.T.);
#1007 = LINE('',#1008,#1009);
#1008 = CARTESIAN_POINT('',(0.32,-0.32,2.54));
#1009 = VECTOR('',#1010,1.);
#1010 = DIRECTION('',(0.,1.,0.));
#1011 = ORIENTED_EDGE('',*,*,#944,.T.);
#1012 = ORIENTED_EDGE('',*,*,#597,.F.);
#1013 = ORIENTED_EDGE('',*,*,#990,.F.);
#1014 = PLANE('',#1015);
#1015 = AXIS2_PLACEMENT_3D('',#1016,#1017,#1018);
#1016 = CARTESIAN_POINT('',(0.32,-0.32,2.54));
#1017 = DIRECTION('',(1.,0.,0.));
#1018 = DIRECTION('',(0.,1.,0.));
#1019 = ADVANCED_FACE('',(#1020),#1038,.T.);
#1020 = FACE_BOUND('',#1021,.T.);
#1021 = EDGE_LOOP('',(#1022,#1030,#1031,#1032));
#1022 = ORIENTED_EDGE('',*,*,#1023,.T.);
#1023 = EDGE_CURVE('',#1024,#629,#1026,.T.);
#1024 = VERTEX_POINT('',#1025);
#1025 = CARTESIAN_POINT('',(1.27,-1.121,2.391));
#1026 = LINE('',#1027,#1028);
#1027 = CARTESIAN_POINT('',(1.594,-0.797,2.067));
#1028 = VECTOR('',#1029,1.);
#1029 = DIRECTION('',(-0.57735026919,-0.57735026919,0.57735026919));
#1030 = ORIENTED_EDGE('',*,*,#628,.T.);
#1031 = ORIENTED_EDGE('',*,*,#681,.T.);
#1032 = ORIENTED_EDGE('',*,*,#1033,.F.);
#1033 = EDGE_CURVE('',#1024,#682,#1034,.T.);
#1034 = LINE('',#1035,#1036);
#1035 = CARTESIAN_POINT('',(1.27,-1.121,2.54));
#1036 = VECTOR('',#1037,1.);
#1037 = DIRECTION('',(0.,0.,-1.));
#1038 = PLANE('',#1039);
#1039 = AXIS2_PLACEMENT_3D('',#1040,#1041,#1042);
#1040 = CARTESIAN_POINT('',(1.1955,-1.1955,2.54));
#1041 = DIRECTION('',(0.707106781187,-0.707106781187,0.));
#1042 = DIRECTION('',(0.,0.,-1.));
#1043 = ADVANCED_FACE('',(#1044,#1060),#1066,.T.);
#1044 = FACE_BOUND('',#1045,.T.);
#1045 = EDGE_LOOP('',(#1046,#1047,#1053,#1054));
#1046 = ORIENTED_EDGE('',*,*,#636,.T.);
#1047 = ORIENTED_EDGE('',*,*,#1048,.F.);
#1048 = EDGE_CURVE('',#746,#629,#1049,.T.);
#1049 = LINE('',#1050,#1051);
#1050 = CARTESIAN_POINT('',(1.121,1.27,2.54));
#1051 = VECTOR('',#1052,1.);
#1052 = DIRECTION('',(0.,-1.,0.));
#1053 = ORIENTED_EDGE('',*,*,#745,.T.);
#1054 = ORIENTED_EDGE('',*,*,#1055,.F.);
#1055 = EDGE_CURVE('',#637,#738,#1056,.T.);
#1056 = LINE('',#1057,#1058);
#1057 = CARTESIAN_POINT('',(-1.121,-1.27,2.54));
#1058 = VECTOR('',#1059,1.);
#1059 = DIRECTION('',(0.,1.,0.));
#1060 = FACE_BOUND('',#1061,.T.);
#1061 = EDGE_LOOP('',(#1062,#1063,#1064,#1065));
#1062 = ORIENTED_EDGE('',*,*,#927,.F.);
#1063 = ORIENTED_EDGE('',*,*,#958,.F.);
#1064 = ORIENTED_EDGE('',*,*,#982,.F.);
#1065 = ORIENTED_EDGE('',*,*,#1006,.F.);
#1066 = PLANE('',#1067);
#1067 = AXIS2_PLACEMENT_3D('',#1068,#1069,#1070);
#1068 = CARTESIAN_POINT('',(2.185478394931E-17,0.,2.54));
#1069 = DIRECTION('',(0.,0.,1.));
#1070 = DIRECTION('',(1.,0.,0.));
#1071 = ADVANCED_FACE('',(#1072),#1078,.F.);
#1072 = FACE_BOUND('',#1073,.F.);
#1073 = EDGE_LOOP('',(#1074,#1075,#1076,#1077));
#1074 = ORIENTED_EDGE('',*,*,#838,.T.);
#1075 = ORIENTED_EDGE('',*,*,#659,.T.);
#1076 = ORIENTED_EDGE('',*,*,#712,.T.);
#1077 = ORIENTED_EDGE('',*,*,#799,.T.);
#1078 = PLANE('',#1079);
#1079 = AXIS2_PLACEMENT_3D('',#1080,#1081,#1082);
#1080 = CARTESIAN_POINT('',(0.,0.,0.));
#1081 = DIRECTION('',(0.,0.,1.));
#1082 = DIRECTION('',(1.,0.,0.));
#1083 = ADVANCED_FACE('',(#1084),#1102,.F.);
#1084 = FACE_BOUND('',#1085,.T.);
#1085 = EDGE_LOOP('',(#1086,#1087,#1088,#1096));
#1086 = ORIENTED_EDGE('',*,*,#905,.F.);
#1087 = ORIENTED_EDGE('',*,*,#644,.T.);
#1088 = ORIENTED_EDGE('',*,*,#1089,.F.);
#1089 = EDGE_CURVE('',#1090,#637,#1092,.T.);
#1090 = VERTEX_POINT('',#1091);
#1091 = CARTESIAN_POINT('',(-1.27,-1.121,2.391));
#1092 = LINE('',#1093,#1094);
#1093 = CARTESIAN_POINT('',(-1.510666666667,-0.880333333333,
    2.150333333333));
#1094 = VECTOR('',#1095,1.);
#1095 = DIRECTION('',(0.57735026919,-0.57735026919,0.57735026919));
#1096 = ORIENTED_EDGE('',*,*,#1097,.F.);
#1097 = EDGE_CURVE('',#906,#1090,#1098,.T.);
#1098 = LINE('',#1099,#1100);
#1099 = CARTESIAN_POINT('',(-1.27,-1.121,0.5));
#1100 = VECTOR('',#1101,1.);
#1101 = DIRECTION('',(0.,0.,1.));
#1102 = PLANE('',#1103);
#1103 = AXIS2_PLACEMENT_3D('',#1104,#1105,#1106);
#1104 = CARTESIAN_POINT('',(-1.1955,-1.1955,0.5));
#1105 = DIRECTION('',(0.707106781187,0.707106781187,0.));
#1106 = DIRECTION('',(-0.,-0.,-1.));
#1107 = ADVANCED_FACE('',(#1108),#1126,.T.);
#1108 = FACE_BOUND('',#1109,.T.);
#1109 = EDGE_LOOP('',(#1110,#1118,#1119,#1120));
#1110 = ORIENTED_EDGE('',*,*,#1111,.T.);
#1111 = EDGE_CURVE('',#1112,#1024,#1114,.T.);
#1112 = VERTEX_POINT('',#1113);
#1113 = CARTESIAN_POINT('',(1.27,1.121,2.391));
#1114 = LINE('',#1115,#1116);
#1115 = CARTESIAN_POINT('',(1.27,1.27,2.391));
#1116 = VECTOR('',#1117,1.);
#1117 = DIRECTION('',(0.,-1.,0.));
#1118 = ORIENTED_EDGE('',*,*,#1033,.T.);
#1119 = ORIENTED_EDGE('',*,*,#698,.T.);
#1120 = ORIENTED_EDGE('',*,*,#1121,.T.);
#1121 = EDGE_CURVE('',#691,#1112,#1122,.T.);
#1122 = LINE('',#1123,#1124);
#1123 = CARTESIAN_POINT('',(1.27,1.121,0.5));
#1124 = VECTOR('',#1125,1.);
#1125 = DIRECTION('',(0.,0.,1.));
#1126 = PLANE('',#1127);
#1127 = AXIS2_PLACEMENT_3D('',#1128,#1129,#1130);
#1128 = CARTESIAN_POINT('',(1.27,-4.848135478712E-17,1.52));
#1129 = DIRECTION('',(1.,0.,0.));
#1130 = DIRECTION('',(0.,0.,1.));
#1131 = ADVANCED_FACE('',(#1132),#1143,.T.);
#1132 = FACE_BOUND('',#1133,.F.);
#1133 = EDGE_LOOP('',(#1134,#1135,#1136,#1142));
#1134 = ORIENTED_EDGE('',*,*,#690,.F.);
#1135 = ORIENTED_EDGE('',*,*,#1121,.T.);
#1136 = ORIENTED_EDGE('',*,*,#1137,.T.);
#1137 = EDGE_CURVE('',#1112,#746,#1138,.T.);
#1138 = LINE('',#1139,#1140);
#1139 = CARTESIAN_POINT('',(1.510666666667,0.880333333333,2.150333333333
    ));
#1140 = VECTOR('',#1141,1.);
#1141 = DIRECTION('',(-0.57735026919,0.57735026919,0.57735026919));
#1142 = ORIENTED_EDGE('',*,*,#753,.F.);
#1143 = PLANE('',#1144);
#1144 = AXIS2_PLACEMENT_3D('',#1145,#1146,#1147);
#1145 = CARTESIAN_POINT('',(1.1955,1.1955,0.5));
#1146 = DIRECTION('',(0.707106781187,0.707106781187,0.));
#1147 = DIRECTION('',(-0.,-0.,-1.));
#1148 = ADVANCED_FACE('',(#1149),#1167,.F.);
#1149 = FACE_BOUND('',#1150,.T.);
#1150 = EDGE_LOOP('',(#1151,#1159,#1160,#1161));
#1151 = ORIENTED_EDGE('',*,*,#1152,.T.);
#1152 = EDGE_CURVE('',#1153,#738,#1155,.T.);
#1153 = VERTEX_POINT('',#1154);
#1154 = CARTESIAN_POINT('',(-1.27,1.121,2.391));
#1155 = LINE('',#1156,#1157);
#1156 = CARTESIAN_POINT('',(-1.594,0.797,2.067));
#1157 = VECTOR('',#1158,1.);
#1158 = DIRECTION('',(0.57735026919,0.57735026919,0.57735026919));
#1159 = ORIENTED_EDGE('',*,*,#737,.T.);
#1160 = ORIENTED_EDGE('',*,*,#896,.T.);
#1161 = ORIENTED_EDGE('',*,*,#1162,.F.);
#1162 = EDGE_CURVE('',#1153,#897,#1163,.T.);
#1163 = LINE('',#1164,#1165);
#1164 = CARTESIAN_POINT('',(-1.27,1.121,2.54));
#1165 = VECTOR('',#1166,1.);
#1166 = DIRECTION('',(0.,0.,-1.));
#1167 = PLANE('',#1168);
#1168 = AXIS2_PLACEMENT_3D('',#1169,#1170,#1171);
#1169 = CARTESIAN_POINT('',(-1.1955,1.1955,2.54));
#1170 = DIRECTION('',(0.707106781187,-0.707106781187,0.));
#1171 = DIRECTION('',(-0.,-0.,1.));
#1172 = ADVANCED_FACE('',(#1173),#1179,.F.);
#1173 = FACE_BOUND('',#1174,.F.);
#1174 = EDGE_LOOP('',(#1175,#1176,#1177,#1178));
#1175 = ORIENTED_EDGE('',*,*,#879,.T.);
#1176 = ORIENTED_EDGE('',*,*,#855,.F.);
#1177 = ORIENTED_EDGE('',*,*,#814,.T.);
#1178 = ORIENTED_EDGE('',*,*,#768,.T.);
#1179 = PLANE('',#1180);
#1180 = AXIS2_PLACEMENT_3D('',#1181,#1182,#1183);
#1181 = CARTESIAN_POINT('',(0.,0.,0.));
#1182 = DIRECTION('',(0.,0.,1.));
#1183 = DIRECTION('',(1.,0.,0.));
#1184 = ADVANCED_FACE('',(#1185),#1196,.F.);
#1185 = FACE_BOUND('',#1186,.F.);
#1186 = EDGE_LOOP('',(#1187,#1193,#1194,#1195));
#1187 = ORIENTED_EDGE('',*,*,#1188,.F.);
#1188 = EDGE_CURVE('',#1090,#1153,#1189,.T.);
#1189 = LINE('',#1190,#1191);
#1190 = CARTESIAN_POINT('',(-1.27,-1.27,2.391));
#1191 = VECTOR('',#1192,1.);
#1192 = DIRECTION('',(0.,1.,0.));
#1193 = ORIENTED_EDGE('',*,*,#1097,.F.);
#1194 = ORIENTED_EDGE('',*,*,#913,.F.);
#1195 = ORIENTED_EDGE('',*,*,#1162,.F.);
#1196 = PLANE('',#1197);
#1197 = AXIS2_PLACEMENT_3D('',#1198,#1199,#1200);
#1198 = CARTESIAN_POINT('',(-1.27,4.848135478712E-17,1.52));
#1199 = DIRECTION('',(1.,0.,0.));
#1200 = DIRECTION('',(0.,0.,1.));
#1201 = ADVANCED_FACE('',(#1202),#1208,.T.);
#1202 = FACE_BOUND('',#1203,.F.);
#1203 = EDGE_LOOP('',(#1204,#1205,#1206,#1207));
#1204 = ORIENTED_EDGE('',*,*,#1137,.F.);
#1205 = ORIENTED_EDGE('',*,*,#1111,.T.);
#1206 = ORIENTED_EDGE('',*,*,#1023,.T.);
#1207 = ORIENTED_EDGE('',*,*,#1048,.F.);
#1208 = PLANE('',#1209);
#1209 = AXIS2_PLACEMENT_3D('',#1210,#1211,#1212);
#1210 = CARTESIAN_POINT('',(1.1955,1.27,2.4655));
#1211 = DIRECTION('',(0.707106781187,0.,0.707106781187));
#1212 = DIRECTION('',(-0.,1.,-0.));
#1213 = ADVANCED_FACE('',(#1214),#1220,.F.);
#1214 = FACE_BOUND('',#1215,.F.);
#1215 = EDGE_LOOP('',(#1216,#1217,#1218,#1219));
#1216 = ORIENTED_EDGE('',*,*,#1089,.F.);
#1217 = ORIENTED_EDGE('',*,*,#1188,.T.);
#1218 = ORIENTED_EDGE('',*,*,#1152,.T.);
#1219 = ORIENTED_EDGE('',*,*,#1055,.F.);
#1220 = PLANE('',#1221);
#1221 = AXIS2_PLACEMENT_3D('',#1222,#1223,#1224);
#1222 = CARTESIAN_POINT('',(-1.1955,-1.27,2.4655));
#1223 = DIRECTION('',(0.707106781187,0.,-0.707106781187));
#1224 = DIRECTION('',(0.,1.,0.));
#1225 = ( GEOMETRIC_REPRESENTATION_CONTEXT(3) 
GLOBAL_UNCERTAINTY_ASSIGNED_CONTEXT((#1229)) 
GLOBAL_UNIT_ASSIGNED_CONTEXT((#1226,#1227,#1228)) REPRESENTATION_CONTEXT
('Context #1','3D Context with UNIT and UNCERTAINTY') );
#1226 = ( LENGTH_UNIT() NAMED_UNIT(*) SI_UNIT(.MILLI.,.METRE.) );
#1227 = ( NAMED_UNIT(*) PLANE_ANGLE_UNIT() SI_UNIT($,.RADIAN.) );
#1228 = ( NAMED_UNIT(*) SI_UNIT($,.STERADIAN.) SOLID_ANGLE_UNIT() );
#1229 = UNCERTAINTY_MEASURE_WITH_UNIT(LENGTH_MEASURE(2.E-07),#1226,
  'distance_accuracy_value','confusion accuracy');
#1230 = CONTEXT_DEPENDENT_SHAPE_REPRESENTATION(#1231,#1233);
#1231 = ( REPRESENTATION_RELATIONSHIP('','',#482,#447) 
REPRESENTATION_RELATIONSHIP_WITH_TRANSFORMATION(#1232) 
SHAPE_REPRESENTATION_RELATIONSHIP() );
#1232 = ITEM_DEFINED_TRANSFORMATION('','',#11,#448);
#1233 = PRODUCT_DEFINITION_SHAPE('Placement','Placement of an item',
  #1234);
#1234 = NEXT_ASSEMBLY_USAGE_OCCURRENCE('6','0','',#442,#477,$);
#1235 = PRODUCT_RELATED_PRODUCT_CATEGORY('part',$,(#479));
#1236 = CONTEXT_DEPENDENT_SHAPE_REPRESENTATION(#1237,#1239);
#1237 = ( REPRESENTATION_RELATIONSHIP('','',#482,#447) 
REPRESENTATION_RELATIONSHIP_WITH_TRANSFORMATION(#1238) 
SHAPE_REPRESENTATION_RELATIONSHIP() );
#1238 = ITEM_DEFINED_TRANSFORMATION('','',#11,#452);
#1239 = PRODUCT_DEFINITION_SHAPE('Placement','Placement of an item',
  #1240);
#1240 = NEXT_ASSEMBLY_USAGE_OCCURRENCE('7','1','',#442,#477,$);
#1241 = CONTEXT_DEPENDENT_SHAPE_REPRESENTATION(#1242,#1244);
#1242 = ( REPRESENTATION_RELATIONSHIP('','',#482,#447) 
REPRESENTATION_RELATIONSHIP_WITH_TRANSFORMATION(#1243) 
SHAPE_REPRESENTATION_RELATIONSHIP() );
#1243 = ITEM_DEFINED_TRANSFORMATION('','',#11,#456);
#1244 = PRODUCT_DEFINITION_SHAPE('Placement','Placement of an item',
  #1245);
#1245 = NEXT_ASSEMBLY_USAGE_OCCURRENCE('8','2','',#442,#477,$);
#1246 = CONTEXT_DEPENDENT_SHAPE_REPRESENTATION(#1247,#1249);
#1247 = ( REPRESENTATION_RELATIONSHIP('','',#482,#447) 
REPRESENTATION_RELATIONSHIP_WITH_TRANSFORMATION(#1248) 
SHAPE_REPRESENTATION_RELATIONSHIP() );
#1248 = ITEM_DEFINED_TRANSFORMATION('','',#11,#460);
#1249 = PRODUCT_DEFINITION_SHAPE('Placement','Placement of an item',
  #1250);
#1250 = NEXT_ASSEMBLY_USAGE_OCCURRENCE('9','3','',#442,#477,$);
#1251 = MECHANICAL_DESIGN_GEOMETRIC_PRESENTATION_REPRESENTATION('',(
    #1252),#414);
#1252 = STYLED_ITEM('color',(#1253),#72);
#1253 = PRESENTATION_STYLE_ASSIGNMENT((#1254,#1260));
#1254 = SURFACE_STYLE_USAGE(.BOTH.,#1255);
#1255 = SURFACE_SIDE_STYLE('',(#1256));
#1256 = SURFACE_STYLE_FILL_AREA(#1257);
#1257 = FILL_AREA_STYLE('',(#1258));
#1258 = FILL_AREA_STYLE_COLOUR('',#1259);
#1259 = COLOUR_RGB('',0.941176459967,0.749019635948,0.380392165758);
#1260 = CURVE_STYLE('',#1261,POSITIVE_LENGTH_MEASURE(0.1),#1262);
#1261 = DRAUGHTING_PRE_DEFINED_CURVE_FONT('continuous');
#1262 = COLOUR_RGB('',9.803921802644E-02,9.803921802644E-02,
  9.803921802644E-02);
#1263 = MECHANICAL_DESIGN_GEOMETRIC_PRESENTATION_REPRESENTATION('',(
    #1264),#1225);
#1264 = STYLED_ITEM('color',(#1265),#483);
#1265 = PRESENTATION_STYLE_ASSIGNMENT((#1266,#1272));
#1266 = SURFACE_STYLE_USAGE(.BOTH.,#1267);
#1267 = SURFACE_SIDE_STYLE('',(#1268));
#1268 = SURFACE_STYLE_FILL_AREA(#1269);
#1269 = FILL_AREA_STYLE('',(#1270));
#1270 = FILL_AREA_STYLE_COLOUR('',#1271);
#1271 = COLOUR_RGB('',0.149019617616,0.149019617616,0.149019617616);
#1272 = CURVE_STYLE('',#1273,POSITIVE_LENGTH_MEASURE(0.1),#1262);
#1273 = DRAUGHTING_PRE_DEFINED_CURVE_FONT('continuous');
ENDSEC;
END-ISO-10303-21;
